# xmcd
#
# Track frame offsets:
#	150
#	20309
#	38419
#	59615
#	79676
#	97901
#	119448
#	135576
#	155333
#	177561
#	195759
#	213625
#
# Disc length: 3095 seconds
#
# Revision: 1
# Processed by: cddbd v1.5.2PL0 Copyright (c) Steve Scherf et al.
# Submitted via: audiograbber 1.83.01
#
DISCID=950c150c
DTITLE= Isabelle Boulay - De retour a la source
DYEAR=2007
DGENRE=francophone
TTITLE0=Entre_Matane_et_Baton_Rouge
TTITLE1=Un_monde_a_refaire
TTITLE2=Adrienne
TTITLE3=Simplement_tout
TTITLE4=De_retour_a_la_source
TTITLE5=Lui
TTITLE6=Aller_simple
TTITLE7=Comme_un_jour_sans_amour
TTITLE8=Tant_que_l_amour_existera
TTITLE9=Only_a_woman_s_heart
TTITLE10=Si_j_etais_perdue
TTITLE11=Mon_village_du_bout_du_monde
EXTD=
EXTT0=
EXTT1=
EXTT2=
EXTT3=
EXTT4=
EXTT5=
EXTT6=
EXTT7=
EXTT8=
EXTT9=
EXTT10=
EXTT11=
PLAYORDER=
